<?xml version="1.0" encoding="UTF-8" standalone="no"?>
<!-- Created with Inkscape (http://www.inkscape.org/) -->

<svg
   xmlns:dc="http://purl.org/dc/elements/1.1/"
   xmlns:cc="http://creativecommons.org/ns#"
   xmlns:rdf="http://www.w3.org/1999/02/22-rdf-syntax-ns#"
   xmlns:svg="http://www.w3.org/2000/svg"
   xmlns="http://www.w3.org/2000/svg"
   xmlns:sodipodi="http://sodipodi.sourceforge.net/DTD/sodipodi-0.dtd"
   xmlns:inkscape="http://www.inkscape.org/namespaces/inkscape"
   width="67.776215mm"
   height="105.54222mm"
   viewBox="0 0 67.776215 105.54222"
   version="1.1"
   id="svg31"
   inkscape:version="0.92.3 (2405546, 2018-03-11)"
   sodipodi:docname="Rock n Roll hand.svg">
  <title
     id="title46">Rock n Roll hand</title>
  <defs
     id="defs25" />
  <sodipodi:namedview
     id="base"
     pagecolor="#ffffff"
     bordercolor="#666666"
     borderopacity="1.0"
     inkscape:pageopacity="0.0"
     inkscape:pageshadow="2"
     inkscape:zoom="0.35"
     inkscape:cx="138.67947"
     inkscape:cy="79.477318"
     inkscape:document-units="mm"
     inkscape:current-layer="layer1"
     showgrid="false"
     fit-margin-top="0"
     fit-margin-left="0"
     fit-margin-right="0"
     fit-margin-bottom="0"
     inkscape:window-width="1920"
     inkscape:window-height="1017"
     inkscape:window-x="3832"
     inkscape:window-y="-8"
     inkscape:window-maximized="1" />
  <metadata
     id="metadata28">
    <rdf:RDF>
      <cc:Work
         rdf:about="">
        <dc:format>image/svg+xml</dc:format>
        <dc:type
           rdf:resource="http://purl.org/dc/dcmitype/StillImage" />
        <dc:title>Rock n Roll hand</dc:title>
        <cc:license
           rdf:resource="http://creativecommons.org/publicdomain/zero/1.0/" />
      </cc:Work>
      <cc:License
         rdf:about="http://creativecommons.org/publicdomain/zero/1.0/">
        <cc:permits
           rdf:resource="http://creativecommons.org/ns#Reproduction" />
        <cc:permits
           rdf:resource="http://creativecommons.org/ns#Distribution" />
        <cc:permits
           rdf:resource="http://creativecommons.org/ns#DerivativeWorks" />
      </cc:License>
    </rdf:RDF>
  </metadata>
  <g
     inkscape:label="Layer 1"
     inkscape:groupmode="layer"
     id="layer1"
     transform="translate(-69.141056,-64.319488)">
    <path
       style="fill:#000000;stroke-width:1"
       d="m 96.319239,169.85135 c -0.006,-0.17506 0.10631,-0.59178 0.24959,-0.92605 1.27552,-2.97593 5.556131,-14.6569 5.461511,-14.90345 -0.0723,-0.18849 -1.01322,-0.39048 -2.326421,-0.49944 -2.66166,-0.22086 -6.91374,-0.85943 -9.08413,-1.36426 -0.87313,-0.20308 -1.73474,-0.371 -1.9147,-0.37316 -0.17996,-0.002 -0.88202,0.95098 -1.56015,2.11807 -0.67812,1.16708 -1.2714,2.08352 -1.31839,2.03652 -0.047,-0.047 0.27532,-1.01452 0.71625,-2.15007 0.44093,-1.13554 0.7357,-2.13062 0.65504,-2.21128 -0.0807,-0.0807 -1.78451,-0.70013 -3.78632,-1.3766 -2.0018,-0.67647 -3.83585,-1.32028 -4.07565,-1.43069 -0.29507,-0.13585 -0.62361,-0.003 -1.01642,0.41252 -0.84979,0.89785 -3.54289,5.03446 -6.4809,9.95466 -1.41692,2.37288 -2.62938,4.26117 -2.69436,4.19619 -0.065,-0.065 0.8894,-2.37284 2.12082,-5.12859 4.14558,-9.27714 4.20459,-9.444 4.28338,-12.11188 l 0.0703,-2.37996 -1.02329,-1.11013 c -0.56281,-0.61058 -1.10539,-1.43726 -1.20573,-1.83707 -0.15358,-0.61189 -0.0425,-0.84379 0.702,-1.4653 0.48645,-0.40611 1.36818,-0.89927 1.95942,-1.09593 l 1.07497,-0.35756 0.4735,-2.22396 c 0.75098,-3.52724 1.16909,-3.89018 4.81548,-4.18002 1.92958,-0.15338 2.1422,-0.22709 2.43757,-0.84503 0.64948,-1.35875 1.18462,-3.87726 1.32601,-6.24049 0.13944,-2.33072 0.10542,-2.52988 -0.92657,-5.42396 -2.23329,-6.26296 -3.21394,-9.95225 -3.26793,-12.29413 -0.0549,-2.38169 1.5036,-4.84127 6.19418,-9.775454 l 2.50076,-2.630638 0.17313,-2.248959 c 0.0952,-1.236927 0.29143,-6.59474 0.43602,-11.90625 0.29199,-10.726283 0.45948,-12.311637 1.46057,-13.824379 1.84905,-2.794117 5.82384,-2.511515 7.290571,0.51835 0.53385,1.102797 0.61375,1.800265 0.79449,6.935336 0.11051,3.14008 0.20904,7.405875 0.21897,9.479547 0.0108,2.244884 0.12178,3.770313 0.27447,3.770313 0.14105,0 0.74991,-0.257215 1.35306,-0.57159 2.55722,-1.332892 5.87536,-0.476925 7.42563,1.915557 0.46398,0.716026 0.89901,1.301866 0.96677,1.301866 0.0677,0 0.57766,-0.136165 1.13313,-0.302588 2.2076,-0.661416 5.40832,1.258615 6.01773,3.60988 0.15087,0.582083 0.38068,1.475052 0.51075,1.984375 l 0.23644,0.926042 3.1111,-3.042709 c 2.22501,-2.176116 3.72861,-3.946977 5.27923,-6.217708 2.58601,-3.786921 3.94369,-4.894792 5.9985,-4.894792 0.98557,0 1.45772,0.155668 2.09272,0.689996 1.1361,0.955956 1.36036,1.475177 1.45127,3.36019 0.10173,2.108867 -0.33817,3.246017 -2.2202,5.739398 -0.82381,1.091406 -2.18096,2.963135 -3.01585,4.159398 -0.83492,1.196263 -2.97326,3.756107 -4.75189,5.688539 -4.9176,5.34282 -4.90442,5.31923 -6.02075,10.78956 -1.42047,6.96088 -2.63327,9.7906 -7.03369,16.41121 -0.64,0.96291 -1.79525,3.41588 -2.61144,5.54492 -1.24237,3.24086 -1.43843,3.98645 -1.29669,4.93163 0.0918,0.61244 0.0389,1.71082 -0.11766,2.44085 l -0.28467,1.32732 1.71315,1.71316 c 1.32512,1.3251 1.71318,1.88807 1.71318,2.48529 0,1.07878 -0.97631,1.89891 -3.10864,2.61135 l -1.78615,0.59676 -0.40632,1.65772 c -0.45408,1.85264 -1.26897,2.60917 -2.81318,2.61174 -0.96309,0.002 -1.67529,0.22801 -1.67529,0.53259 0,0.1155 -0.48197,1.26362 -1.07104,2.55138 -2.411161,5.27106 -3.426881,7.53058 -3.426881,7.62327 0,0.27723 -2.36144,4.97809 -2.37034,4.71858 z m 4.467301,-21.27647 c 1.06777,-1.75582 0.90402,-4.05686 -0.37419,-5.25767 -0.36544,-0.34331 -0.664441,-0.49896 -0.664441,-0.34589 0,0.15307 0.16814,0.41784 0.373631,0.58839 0.2055,0.17054 0.50566,0.86973 0.66703,1.55375 0.31496,1.33503 0.1084,2.51408 -0.64072,3.65738 -0.226851,0.34621 -0.288701,0.62899 -0.13756,0.62899 0.15101,0 0.50033,-0.37123 0.77625,-0.82495 z m -2.626131,0.25579 c -1.75013,-0.71112 -1.98456,-0.9059 -2.03182,-1.68814 -0.0291,-0.481 0.007,-0.58031 0.0935,-0.25624 0.23442,0.88032 0.86324,1.39536 1.84332,1.50978 1.05159,0.12276 1.77972,-0.54215 2.077291,-1.89694 0.22599,-1.02894 -0.298211,-2.84984 -0.915501,-3.18021 -1.27223,-0.68088 -2.84679,-0.10002 -3.5818,1.32133 -1.08913,2.10615 0.0747,4.51404 2.16397,4.47709 0.94896,-0.0168 0.97101,-0.0348 0.35108,-0.28667 z m 11.972401,-1.60732 c 0.58896,-0.17127 0.99219,-0.45319 0.99219,-0.69368 0,-0.4763 -2.59707,-2.95067 -3.09698,-2.95067 -0.4926,0 -0.42182,0.45613 0.12041,0.77607 0.36235,0.2138 0.28369,0.23975 -0.36189,0.11936 -0.74721,-0.13934 -0.85315,-0.0729 -1.12448,0.70547 -0.34235,0.98203 -0.39235,2.18687 -0.10279,2.47642 0.22357,0.22359 2.09584,-0.003 3.57354,-0.43297 z m -21.238571,-0.25954 c 1.16569,-1.25122 1.28757,-3.81949 0.23488,-4.94942 -0.71103,-0.7632 -0.86144,-0.69086 -0.31082,0.14949 0.74813,1.1418 0.61808,3.25778 -0.27195,4.42467 -0.79487,1.04213 -0.53477,1.32269 0.34789,0.37526 z m -2.50778,-0.37362 -0.79376,-0.3854 0.98914,0.15373 c 0.90316,0.14037 1.03667,0.078 1.53608,-0.71758 0.69289,-1.1038 0.59749,-3.19993 -0.17216,-3.78254 -1.70982,-1.29433 -4.33621,1.01736 -3.87817,3.41347 0.17785,0.93035 1.2675,1.75184 2.2884,1.72522 l 0.82421,-0.0215 -0.79375,-0.38541 z m -1.46263,-0.90839 c -0.15985,-0.29867 -0.25208,-0.7432 -0.20496,-0.98784 0.0501,-0.25995 0.21166,-0.0343 0.38884,0.54303 0.33578,1.0941 0.26075,1.27561 -0.18388,0.44481 z m -5.76196,-1.22333 c 0.67372,-0.60971 1.42112,-3.2169 1.03334,-3.60467 -0.21167,-0.21168 -0.29105,-0.16376 -0.29105,0.1757 0,0.87467 -1.26137,3.23472 -1.89048,3.53712 l -0.62306,0.29948 0.64063,0.0179 c 0.35234,0.01 0.86112,-0.18165 1.13062,-0.42554 z m -0.9284,-1.29288 c 0.0452,-0.13643 -0.45884,-0.58986 -1.12007,-1.00762 -1.47323,-0.93078 -1.35624,-1.17311 0.26705,-0.55317 0.66693,0.25471 1.29182,0.38387 1.38865,0.28704 0.0968,-0.0968 0.22884,-0.9057 0.29334,-1.79748 l 0.11729,-1.62141 -1.02685,0.13845 c -1.52174,0.20519 -3.54038,1.22876 -3.54038,1.79519 0,0.26041 0.66983,1.08567 1.48851,1.83389 1.39758,1.27732 1.93811,1.51181 2.13246,0.92511 z m 19.39778,-3.71717 c -7.3567,-1.18651 -10.85568,-2.14412 -15.03339,-4.11439 -1.2733,-0.6005 -2.15662,-1.17148 -2.09558,-1.35458 0.058,-0.17409 0.67474,-0.4773 1.37047,-0.6738 0.87217,-0.24634 1.17989,-0.44234 0.99099,-0.63124 -0.4118,-0.4118 -2.55989,-0.002 -3.09627,0.5907 -0.42295,0.46736 -0.42716,0.56425 -0.0496,1.14055 0.79454,1.21261 6.04024,3.30796 11.00764,4.3969 3.81329,0.83595 9.681851,1.61277 10.212991,1.3519 0.14552,-0.0715 -1.342761,-0.38919 -3.307291,-0.70604 z m 9.525001,-0.43725 c 0,-0.44389 3.03315,-8.34782 3.33205,-8.68281 0.53065,-0.59474 0.28652,-0.70735 -1.28632,-0.59332 l -1.38428,0.10036 1.38139,-0.55216 c 1.7312,-0.69198 2.29952,-1.29842 4.45548,-4.75424 2.48362,-3.98105 3.49121,-6.29716 4.37393,-10.05417 0.42739,-1.81901 1.08744,-4.49791 1.4668,-5.95312 0.98983,-3.79685 0.99769,-3.90044 0.39328,-5.18765 l -0.54578,-1.16235 0.9258,1.04508 0.9258,1.04508 1.24347,-1.44196 c 0.68389,-0.79307 2.2648,-2.51351 3.51311,-3.823202 1.24833,-1.309688 3.092,-3.571875 4.09702,-5.027084 1.00504,-1.455208 2.28676,-3.232898 2.84829,-3.950422 1.41713,-1.810906 2.04187,-3.131736 2.03732,-4.307266 -0.008,-2.029418 -1.14374,-2.980373 -2.4991,-2.092309 -0.75798,0.496649 -3.60974,3.956471 -4.19042,5.083937 -0.23989,0.465746 -0.35269,1.084485 -0.26135,1.43369 0.12467,0.476784 0.0707,0.579829 -0.24093,0.460232 -0.55446,-0.212765 -1.71569,0.603165 -2.79612,1.964637 -1.41967,1.789025 -1.6937,2.448391 -1.37059,3.298198 0.26731,0.703096 0.25926,0.713325 -0.22016,0.279453 -0.73909,-0.668859 -1.03376,-0.57522 -2.68126,0.852054 -2.05949,1.784157 -6.21988,4.552872 -6.33722,4.217382 -0.0527,-0.15068 0.28397,-0.66582 0.74816,-1.14476 0.96004,-0.990494 1.31664,-2.210112 1.32572,-4.53399 0.007,-1.850734 -0.36166,-3.15376 -1.13477,-4.008232 -0.55467,-0.613021 -1.86783,-0.813511 -2.1662,-0.330729 -0.0899,0.145521 -0.38507,0.264584 -0.65585,0.264584 -0.75888,0 -4.56967,5.436613 -4.56967,6.519262 0,0.363897 -0.20005,0.673319 -0.49609,0.767276 -0.39905,0.12665 -0.4961,0.419602 -0.4961,1.497359 0,1.23448 -0.0933,1.43321 -1.18604,2.52594 l -1.18605,1.18605 0.52459,0.6669 c 0.66939,0.85099 0.66609,1.92675 -0.0101,3.25192 -0.60113,1.17828 -1.29495,1.3467 -2.65361,0.64412 -0.655,-0.33872 -0.7806,-0.34388 -0.7806,-0.0321 0,0.45195 1.36782,1.05313 2.39612,1.05313 0.92975,0 1.29633,-0.30026 3.05144,-2.49945 1.72455,-2.16087 5.69521,-6.37792 5.85491,-6.21822 0.1972,0.1972 -0.37126,1.07575 -1.91331,2.95701 -0.80994,0.98813 -1.41213,1.95429 -1.33815,2.14703 0.0739,0.19274 -0.0347,0.35044 -0.24138,0.35044 -0.47014,0 -2.07547,2.29153 -1.85513,2.64806 0.0892,0.14429 0.48255,0.26465 0.87413,0.26746 0.39161,0.003 1.30731,0.17075 2.03491,0.37322 1.2935,0.35992 1.30183,0.36863 0.37486,0.39177 -0.52144,0.013 -1.64166,-0.11564 -2.48938,-0.28588 -1.50186,-0.30162 -1.55546,-0.29234 -2.09463,0.36291 -0.63394,0.77039 -1.52781,1.2847 -2.67001,1.53623 -0.50438,0.11107 -0.75782,0.31136 -0.6952,0.54937 0.0542,0.20601 0.27422,1.02941 0.48887,1.82978 0.45755,1.70597 0.34968,4.46421 -0.22735,5.81355 -0.37714,0.88189 -0.39225,0.79695 -0.37648,-2.11667 0.0199,-3.65473 -0.29781,-4.72708 -2.34849,-7.93022 -2.086461,-3.25902 -2.445431,-3.65762 -3.607651,-4.00583 -0.93274,-0.27945 -1.19333,-0.24563 -2.37627,0.30843 -0.73075,0.34226 -1.82016,1.07607 -2.42091,1.63068 -0.60076,0.55462 -1.19153,1.00839 -1.31284,1.00839 -0.429,0 -0.21208,-0.49743 0.4409,-1.01106 0.81734,-0.64293 0.83278,-0.83998 0.0661,-0.84464 -0.78586,-0.005 -1.78646,-0.27976 -1.78386,-0.49026 0.001,-0.0922 0.58992,-0.18866 1.3084,-0.21443 1.52671,-0.0547 2.75724,-0.58352 4.14041,-1.77918 l 0.9938,-0.85907 -0.44422,-1.1102 c -0.24432,-0.61061 -0.43955,-1.37568 -0.43386,-1.70016 0.009,-0.50404 0.0621,-0.47103 0.3659,0.22663 0.79549,1.82706 6.453811,3.05448 8.751871,1.89848 0.78928,-0.39703 1.98438,-1.57627 1.98438,-1.95805 0,-0.26622 -0.17071,-0.26282 -0.83542,0.0167 -0.95639,0.40213 -2.11643,0.18061 -3.71759,-0.70989 -1.0139,-0.563914 -1.49237,-1.469961 -1.32609,-2.511195 0.13818,-0.865269 0.58743,-0.730059 0.58743,0.176798 0,1.230246 0.24516,1.575784 1.51723,2.138476 1.44653,0.639881 2.39625,0.670571 3.20572,0.103591 l 0.60735,-0.425409 -0.61463,-0.660069 c -0.33803,-0.363038 -1.62666,-1.179624 -2.86359,-1.814637 -1.23692,-0.635011 -2.903801,-1.635562 -3.704161,-2.223448 -2.14575,-1.576099 -2.58766,-1.76635 -3.04364,-1.310364 -0.20805,0.208044 -0.55245,0.854239 -0.76534,1.435986 -0.26021,0.711073 -0.39318,0.871895 -0.40571,0.490717 -0.025,-0.760362 -0.68289,-0.968764 -1.58521,-0.502155 -1.05363,0.544857 -4.60188,4.428937 -6.1242,6.703859 -2.58945,3.86959 -2.68619,5.52859 -0.72829,12.48926 1.98546,7.05861 3.55778,10.1131 5.83415,11.33376 1.5733,0.84366 1.4707,1.06014 -0.13315,0.28093 -0.657,-0.31919 -1.38509,-0.50723 -1.61798,-0.41786 -0.63511,0.24371 -1.40032,1.65672 -2.02601,3.74117 -0.30758,1.02467 -1.04228,2.97191 -1.63267,4.3272 -0.59998,1.3773 -0.96996,2.55504 -0.83884,2.67022 0.23752,0.20864 5.788,1.61338 6.37259,1.61281 0.17454,-1.7e-4 1.11596,-1.66719 2.09215,-3.70448 1.55272,-3.24051 2.221,-4.2859 2.221,-3.47432 0,0.12642 -0.6425,1.85343 -1.42778,3.8378 -0.92802,2.34503 -1.32864,3.66921 -1.14454,3.78299 0.5222,0.32274 2.14081,0.1844 2.33734,-0.19977 0.10547,-0.20615 0.60162,-1.26779 1.10257,-2.3592 1.07842,-2.34954 3.433851,-5.64436 3.568311,-4.99143 0.049,0.23788 -0.46537,1.36898 -1.143021,2.51354 -1.55566,2.62753 -2.76375,5.00861 -2.76358,5.44691 10e-5,0.25958 1.16948,0.35936 5.027091,0.42895 2.76481,0.0499 5.02695,0.0371 5.02695,-0.0283 z m -5.89172,-11.20167 c -0.0875,-0.0875 -0.79195,-0.24353 -1.565461,-0.34674 l -1.40637,-0.18765 0.97462,-0.42617 c 0.56174,-0.24563 1.153061,-0.77125 1.395871,-1.24076 0.577,-1.11582 0.7729,-1.02121 0.56589,0.27331 -0.11012,0.68862 -0.0601,1.22506 0.13618,1.4616 0.30329,0.36546 0.2136,0.78075 -0.10073,0.46641 z m 11.59648,-20.66083 c -2.2632,-0.40551 -3.44583,-0.85658 -2.26518,-0.86396 0.83667,-0.005 3.89009,0.70804 4.46265,1.04246 0.51895,0.30311 0.46672,0.29887 -2.19747,-0.1785 z m -8.50649,0.31357 c 1.06529,-1.6258 0.64614,-3.30616 -0.82465,-3.30616 -0.77632,0 -2.45597,1.74082 -2.45777,2.5473 -0.003,1.34706 2.51553,1.92932 3.28242,0.75886 z m 3.0779,-12.998609 1.91497,-2.813283 -0.43876,-1.353905 c -0.48987,-1.511742 -0.7921,-1.965992 -1.74511,-2.622815 -0.86296,-0.59478 -2.00268,-0.572148 -2.62699,0.05217 -0.27668,0.276675 -0.75301,0.58238 -1.05849,0.679344 -1.16364,0.369324 -2.64004,3.084592 -3.06129,5.630048 -0.1581,0.955389 -0.11309,1.146202 0.3002,1.272667 0.26739,0.08182 1.31961,0.55126 2.33825,1.043192 1.01865,0.491929 1.98938,0.901493 2.15715,0.910142 0.1678,0.0087 1.16682,-1.250251 2.22007,-2.797558 z m -2.12826,-5.917965 -0.66146,-0.211836 0.66146,-0.02233 c 0.36381,-0.01228 0.84006,0.09309 1.05834,0.234159 0.35277,0.227983 0.35277,0.254 0,0.234159 -0.21828,-0.01228 -0.69453,-0.11765 -1.05834,-0.234159 z m -6.572331,3.722693 c 0.24152,-0.424535 0.3705,-0.840499 0.28663,-0.92437 -0.0839,-0.08387 -0.93632,-0.164973 -1.89433,-0.180231 l -1.74184,-0.02774 1.05833,-0.348798 c 0.58209,-0.191839 1.40431,-0.35795 1.82717,-0.369133 l 0.76883,-0.02035 -0.19714,-7.871354 c -0.40097,-16.009865 -0.42888,-16.264627 -1.82029,-16.613847 -1.43026,-0.358974 -2.13315,-0.05383 -2.76846,1.201867 -0.5223,1.032303 -0.59266,1.52486 -0.52917,3.704167 l 0.0732,2.513541 0.99833,0.02819 c 1.40819,0.03976 1.5235,0.318799 0.21801,0.527555 -0.65677,0.105021 -1.20646,0.369234 -1.35825,0.652841 -0.34376,0.642324 -0.32553,5.441236 0.0232,6.092744 0.16424,0.306903 0.51631,0.499586 0.85989,0.470625 1.1329,-0.09549 2.03698,0.0367 2.03698,0.297852 0,0.14552 -0.59225,0.264583 -1.31612,0.264583 -1.94139,0 -2.12346,0.484762 -2.12346,5.653762 0,2.250898 0.0686,4.271333 0.15246,4.489858 0.11775,0.306832 0.46421,0.368385 1.52136,0.270275 1.07149,-0.09944 1.54134,-0.01281 2.16264,0.398732 1.07007,0.708805 1.25122,0.687139 1.76204,-0.210767 z"
       id="path44"
       inkscape:connector-curvature="0"
       sodipodi:nodetypes="cccccccccscccssccccccscscccscsccsccccsccsscccccsccccccccccccsccccscsccccscccsccccccccccccssccccccscsccccsccccccccccccsccccccccscccsccccccsscccccccscccccccccccccccccccccccccccsssscccccsscsccsccccccccccccccssccccccccccsccsscsccccccccccccccccccscccccscccccccccccccccccscccccccccsccccccccccccccccccscccccscccssscsccc" />
  </g>
</svg>
