<?xml version="1.0" encoding="utf-8" standalone="no"?>
<!DOCTYPE svg PUBLIC "-//W3C//DTD SVG 1.1//EN"
  "http://www.w3.org/Graphics/SVG/1.1/DTD/svg11.dtd">
<svg xmlns:xlink="http://www.w3.org/1999/xlink" width="432pt" height="432pt" viewBox="0 0 432 432" xmlns="http://www.w3.org/2000/svg" version="1.1">
 <metadata>
  <rdf:RDF xmlns:dc="http://purl.org/dc/elements/1.1/" xmlns:cc="http://creativecommons.org/ns#" xmlns:rdf="http://www.w3.org/1999/02/22-rdf-syntax-ns#">
   <cc:Work>
    <dc:type rdf:resource="http://purl.org/dc/dcmitype/StillImage"/>
    <dc:date>2024-04-17T13:09:49.525331</dc:date>
    <dc:format>image/svg+xml</dc:format>
    <dc:creator>
     <cc:Agent>
      <dc:title>Matplotlib v3.6.3, https://matplotlib.org/</dc:title>
     </cc:Agent>
    </dc:creator>
   </cc:Work>
  </rdf:RDF>
 </metadata>
 <defs>
  <style type="text/css">*{stroke-linejoin: round; stroke-linecap: butt}</style>
 </defs>
 <g id="figure_1">
  <g id="patch_1">
   <path d="M 0 432 
L 432 432 
L 432 0 
L 0 0 
L 0 432 
z
" style="fill: none; opacity: 0"/>
  </g>
  <g id="axes_1">
   <g id="patch_2">
    <path d="M 283.915871 195.406084 
C 280.593377 186.277608 275.311462 177.986662 268.4424 171.1176 
C 261.573338 164.248538 253.282392 158.966623 244.153916 155.644129 
L 221.4 218.16 
L 283.915871 195.406084 
z
" clip-path="url(#pd696cc8db3)" style="fill: #ff0000"/>
   </g>
   <g id="patch_3">
    <path d="M 198.646084 155.644129 
C 189.517608 158.966623 181.226662 164.248538 174.3576 171.1176 
C 167.488538 177.986662 162.206623 186.277608 158.884129 195.406084 
L 221.4 218.16 
L 198.646084 155.644129 
z
" clip-path="url(#pd696cc8db3)"/>
   </g>
   <g id="patch_4">
    <path d="M 158.884129 240.913916 
C 162.206623 250.042392 167.488538 258.333338 174.3576 265.2024 
C 181.226662 272.071462 189.517608 277.353377 198.646084 280.675871 
L 221.4 218.16 
L 158.884129 240.913916 
z
" clip-path="url(#pd696cc8db3)" style="fill: #ff0000"/>
   </g>
   <g id="patch_5">
    <path d="M 244.153916 280.675871 
C 253.282392 277.353377 261.573338 272.071462 268.4424 265.2024 
C 275.311462 258.333338 280.593377 250.042392 283.915871 240.913916 
L 221.4 218.16 
L 244.153916 280.675871 
z
" clip-path="url(#pd696cc8db3)"/>
   </g>
  </g>
 </g>
 <defs>
  <clipPath id="pd696cc8db3">
   <rect x="55.08" y="51.84" width="332.64" height="332.64"/>
  </clipPath>
 </defs>
</svg>
